<?xml version="1.0" encoding="utf-8"?>
<!-- Generator: Adobe Illustrator 25.3.1, SVG Export Plug-In . SVG Version: 6.00 Build 0)  -->
<svg version="1.1" xmlns="http://www.w3.org/2000/svg" xmlns:xlink="http://www.w3.org/1999/xlink" x="0px" y="0px"
	 viewBox="0 0 140.05 168.12" style="enable-background:new 0 0 140.05 168.12;" xml:space="preserve">
<style type="text/css">
	.st0{fill:#F6A222;}
	.st1{display:none;}
</style>
<g id="Capa_1">
	<g id="_003-proximo" transform="matrix(-0.017, 1, -1, -0.017, 155.581, 2.676)">
		<g id="Grupo_530" transform="translate(61.425 48.016)">
			<g id="Grupo_529" transform="translate(0 0)">
				<path id="Trazado_2333" class="st0" d="M95.58,22.06L52.3-21.23c-8.45-8.45-22.15-8.45-30.6,0c-8.45,8.45-8.45,22.15,0,30.6
					l27.98,27.98L21.69,65.34c-8.45,8.45-8.45,22.15,0,30.6c8.45,8.45,22.15,8.45,30.6,0l43.29-43.29
					c8.45-8.44,8.46-22.14,0.01-30.59C95.59,22.06,95.59,22.06,95.58,22.06z M87.94,45.01L44.65,88.3c-4.28,4.09-11.02,4.09-15.3,0
					c-4.22-4.23-4.22-11.07,0-15.3l35.64-35.64L29.35,1.71c-4.22-4.24-4.2-11.09,0.04-15.31c4.22-4.2,11.04-4.2,15.26-0.01
					l43.29,43.29C92.16,33.92,92.16,40.77,87.94,45.01L87.94,45.01z"/>
			</g>
		</g>
		<g id="Grupo_532" transform="translate(0 48.016)">
			<g id="Grupo_531" transform="translate(0 0)">
				<path id="Trazado_2334" class="st0" d="M81.26,22.06L37.97-21.23c-8.45-8.45-22.15-8.45-30.6,0s-8.45,22.15,0,30.6l27.98,27.98
					L7.37,65.34c-8.45,8.45-8.45,22.15,0,30.6c8.45,8.45,22.15,8.45,30.6,0l0,0l43.29-43.29c8.45-8.44,8.46-22.14,0.01-30.59
					C81.26,22.06,81.26,22.06,81.26,22.06z M73.61,45.01L30.33,88.3c-4.28,4.09-11.02,4.09-15.3,0c-4.22-4.23-4.22-11.07,0-15.3
					l35.64-35.64L15.02,1.71c-4.09-4.36-3.87-11.21,0.5-15.3c4.16-3.9,10.64-3.9,14.8,0L73.61,29.7
					C77.83,33.93,77.83,40.78,73.61,45.01L73.61,45.01z"/>
			</g>
		</g>
	</g>
</g>
<g id="Capa_2" class="st1">
</g>
</svg>
