<svg id="Grupo_3225" data-name="Grupo 3225" xmlns="http://www.w3.org/2000/svg" xmlns:xlink="http://www.w3.org/1999/xlink" width="145.72" height="45.555" viewBox="0 0 145.72 45.555">
  <defs>
    <clipPath id="clip-path">
      <rect id="Rectángulo_1845" data-name="Rectángulo 1845" width="145.72" height="45.555" fill="#fff"/>
    </clipPath>
  </defs>
  <g id="Grupo_3224" data-name="Grupo 3224" clip-path="url(#clip-path)">
    <path id="Trazado_6945" data-name="Trazado 6945" d="M127.693,26.757H110.9a6.818,6.818,0,0,0,.768,2.543,6.721,6.721,0,0,0,5.139,3.69,6.592,6.592,0,0,0,6.145-2.33c.23-.258.408-.562.622-.834a.427.427,0,0,1,.262-.174c1.016-.011,2.032,0,3.048,0,.017,0,.033.014.071.032a8.463,8.463,0,0,1-1.1,1.922A9.62,9.62,0,0,1,120.1,35.39a9.76,9.76,0,0,1-9.831-3.087,8.985,8.985,0,0,1-2.419-7.193,9.461,9.461,0,0,1,6.344-8.325,9.97,9.97,0,0,1,12.883,5.6,9.744,9.744,0,0,1,.656,4.111c0,.075-.021.15-.037.262m-3.215-2.623a6.858,6.858,0,0,0-13.406,0Z" transform="translate(-4.889 -0.73)" fill="#fff"/>
    <path id="Trazado_6946" data-name="Trazado 6946" d="M80.864,26.756H64a17.619,17.619,0,0,0,.531,1.853,6.824,6.824,0,0,0,12.134,1.313.541.541,0,0,1,.536-.283c.966.014,1.932.006,2.973.006-.253.468-.456.9-.712,1.306a9.786,9.786,0,0,1-6.27,4.469,9.963,9.963,0,0,1-12.015-7.539,9.77,9.77,0,0,1,6.556-11.247A9.893,9.893,0,0,1,80.9,26.491c0,.075-.019.151-.034.265m-16.62-2.627h13.4a6.857,6.857,0,0,0-13.4,0" transform="translate(-2.765 -0.731)" fill="#fff"/>
    <path id="Trazado_6947" data-name="Trazado 6947" d="M104.533,22.08h-.339c-.852,0-1.7-.008-2.555.006a.531.531,0,0,1-.5-.255,7.157,7.157,0,0,0-5.208-3.062,6.91,6.91,0,0,0-7.351,4.749,7.229,7.229,0,0,0,4.144,9.11A7.137,7.137,0,0,0,101.044,30a.521.521,0,0,1,.493-.263c.871.014,1.742.006,2.613.006h.393c-.263.461-.466.874-.719,1.252a10.013,10.013,0,0,1-6.894,4.516,9.784,9.784,0,0,1-9.067-2.936,9.244,9.244,0,0,1-2.683-6.761,9.754,9.754,0,0,1,7.7-9.428,10.157,10.157,0,0,1,10.073,3.275,9.288,9.288,0,0,1,1.514,2.253c.02.041.033.085.067.169" transform="translate(-3.863 -0.731)" fill="#fff"/>
    <path id="Trazado_6948" data-name="Trazado 6948" d="M143.773,10.2h3.011v6.145h5.455v2.609h-5.447V19.3q0,3.987,0,7.972a5.312,5.312,0,0,0,4.236,5.387c.39.094.8.119,1.212.179v2.6c-.485-.048-.967-.058-1.435-.147a8.266,8.266,0,0,1-6.482-5.185,7.2,7.2,0,0,1-.547-2.766q-.01-8.451,0-16.9Z" transform="translate(-6.521 -0.463)" fill="#fff"/>
    <path id="Trazado_6949" data-name="Trazado 6949" d="M140.316,16.121V18.7c-.3.034-.6.064-.906.105a5.3,5.3,0,0,0-4.486,4.514,7.926,7.926,0,0,0-.057.952q-.006,5.261,0,10.523v.354h-3a2.051,2.051,0,0,1-.022-.218c0-3.556-.053-7.112.017-10.667A7.922,7.922,0,0,1,136.7,16.9a8.07,8.07,0,0,1,3.618-.778" transform="translate(-5.979 -0.731)" fill="#fff"/>
    <path id="Trazado_6950" data-name="Trazado 6950" d="M3.468,29.646V27.458A12.956,12.956,0,0,1,16.409,14.517H23.4l2.055-3.462-9.047-.006A16.428,16.428,0,0,0,0,27.458v2.188A16.428,16.428,0,0,0,16.409,46.056H32.96V42.588H16.409A12.956,12.956,0,0,1,3.468,29.646" transform="translate(0 -0.501)" fill="#fff"/>
    <path id="Trazado_6951" data-name="Trazado 6951" d="M17.909,32.539a3.514,3.514,0,1,1,0-7.028h11.1c.02,0,.038,0,.057-.006h.99l2.054-3.462h-14.2a6.981,6.981,0,1,0,0,13.963h.845l2.055-3.462Z" transform="translate(-0.496 -1)" fill="#fff"/>
    <path id="Trazado_6952" data-name="Trazado 6952" d="M36.618,0H20.067V3.468H36.618A12.956,12.956,0,0,1,49.559,16.409V18.6A12.956,12.956,0,0,1,36.618,31.539l-15.437.007-2.054,3.462H36.618A16.428,16.428,0,0,0,53.027,18.6V16.409A16.428,16.428,0,0,0,36.618,0" transform="translate(-0.868 0)" fill="#fff"/>
    <path id="Trazado_6953" data-name="Trazado 6953" d="M35.8,11.049l-9.229.006-2.055,3.462H35.8a3.514,3.514,0,1,1,0,7.028H32.726l-2.054,3.462,5.126,0a6.981,6.981,0,1,0,0-13.963" transform="translate(-1.112 -0.501)" fill="#fff"/>
  </g>
</svg>
