<svg xmlns="http://www.w3.org/2000/svg" width="144.494" height="73.895" viewBox="0 0 144.494 73.895">
  <g id="Grupo_2300" data-name="Grupo 2300" transform="translate(-184.541 -197.859)">
    <g id="Grupo_2297" data-name="Grupo 2297" transform="translate(192.127 205.445)">
      <g id="Grupo_2295" data-name="Grupo 2295" transform="translate(0 0)">
        <g id="Grupo_2293" data-name="Grupo 2293" transform="translate(67.033)">
          <path id="Trazado_5881" data-name="Trazado 5881" d="M432.23,250.431a10.827,10.827,0,0,1-5.73,5.814,11.716,11.716,0,0,1-4.457.8,11.532,11.532,0,0,1-4.393-.8,10.666,10.666,0,0,1-5.795-5.814,11.108,11.108,0,0,1-.828-4.329V233.074l-.01-10.776a2.271,2.271,0,0,0-2.3-2.235h-5.773v26.224a17.206,17.206,0,0,0,.7,4.948,20.764,20.764,0,0,0,1.91,4.453,19.7,19.7,0,0,0,2.993,3.711,19.3,19.3,0,0,0,3.821,2.907,18.853,18.853,0,0,0,1.787.889,19.311,19.311,0,0,0,2.829,1,19.664,19.664,0,0,0,5.062.65,20.16,20.16,0,0,0,7.417-1.361,18.819,18.819,0,0,0,3.6-1.885V246.138A11.115,11.115,0,0,1,432.23,250.431Z" transform="translate(-402.942 -220.063)" fill="#f27a00"/>
          <path id="Trazado_5882" data-name="Trazado 5882" d="M497.645,253.8a17.686,17.686,0,0,0,1.529-7.391v-3.616h0V227.856h0v-7.793h-5.786a2.27,2.27,0,0,0-2.3,2.236l0,23.8c0,.012,0,.024,0,.036V261.6a17.827,17.827,0,0,0,2.453-1.95A18.711,18.711,0,0,0,497.645,253.8Z" transform="translate(-460.97 -220.063)" fill="#9f006a"/>
        </g>
        <path id="Trazado_5883" data-name="Trazado 5883" d="M297.2,321.059v8.781l0,0v-8.782Z" transform="translate(-266.293 -286.551)" fill="#358627"/>
        <g id="Grupo_2294" data-name="Grupo 2294" transform="translate(30.915 7.793)">
          <path id="Trazado_5884" data-name="Trazado 5884" d="M320.9,257.81h5.092c.339,0,2.739-.03,3.081-.03,8.256,0,7.746-7.151,7.7-7.975-.182-3.323-1.808-6.934-8.8-6.934h-7.075V257.81Z" transform="translate(-312.809 -242.871)" fill="none"/>
          <path id="Trazado_5885" data-name="Trazado 5885" d="M305.311,301.057l0-14.52H297.23v3.326c0,.013,0,.024,0,.037v17.441a26.619,26.619,0,0,0,6.308-3.332A3.689,3.689,0,0,0,305.311,301.057Z" transform="translate(-297.229 -271.619)" fill="#129bdb" style="mix-blend-mode: multiply;isolation: isolate"/>
        </g>
        <path id="Trazado_5886" data-name="Trazado 5886" d="M230.217,250.588h7.436v4.184a11.819,11.819,0,0,1-4.943,1.912,18.912,18.912,0,0,1-6.837-.189,14.124,14.124,0,0,1-3.579-1.446,13.621,13.621,0,0,1-3.009-2.307,13.385,13.385,0,0,1-2.375-2.923,14.61,14.61,0,0,1-1.52-3.476,13.751,13.751,0,0,1-.538-3.876,14.331,14.331,0,0,1,.507-3.815,12.623,12.623,0,0,1,1.52-3.445,13.543,13.543,0,0,1,2.344-3.014,14.747,14.747,0,0,1,3.1-2.307A16.862,16.862,0,0,1,226,228.379a25.306,25.306,0,0,1,8.209-.493l-.015-7.823h-3.807a29.6,29.6,0,0,0-6.668.748,20.813,20.813,0,0,0-5.51,2.215,23.17,23.17,0,0,0-4.718,3.538,22.184,22.184,0,0,0-3.611,4.553,22.5,22.5,0,0,0-2.311,5.352,21.919,21.919,0,0,0,1.012,14.734,22.06,22.06,0,0,0,4.878,7.075,23.584,23.584,0,0,0,16.341,6.583,23.942,23.942,0,0,0,7.157-1.046l.57-.184c.046-.016.087-.036.133-.052V246.138c0-.012,0-.024,0-.037v-3.326H227.9l-.032,5.523A2.311,2.311,0,0,0,230.217,250.588Z" transform="translate(-206.745 -220.063)" fill="#15b0eb"/>
        <path id="Trazado_5887" data-name="Trazado 5887" d="M305.311,301.057l0-14.52H297.23v3.326c0,.013,0,.024,0,.037v17.441a26.619,26.619,0,0,0,6.308-3.332A3.689,3.689,0,0,0,305.311,301.057Z" transform="translate(-266.314 -263.826)" fill="#36922c"/>
        <path id="Trazado_5888" data-name="Trazado 5888" d="M319.958,249.3c7.813-2.877,9.837-10.83,9.388-15.89a14.686,14.686,0,0,0-2.871-8.053c-2.692-3.242-5.7-5.3-14.163-5.3h-15.08v22.712h8.084V227.856h7.075c6.992,0,8.619,3.61,8.8,6.934.045.824.556,7.975-7.7,7.975-.342,0-2.743.03-3.081.03h-5.094v-.019l0,14.056,0,0v-6.436h4.325a3.608,3.608,0,0,1,2.865,1.494l.827,1.052c3.311,4.289,8.05,11.409,8.05,11.409l9.378-.012S324.872,256.181,319.958,249.3Z" transform="translate(-266.317 -220.063)" fill="#9cba26"/>
        <path id="Trazado_5889" data-name="Trazado 5889" d="M537.993,233.415a14.689,14.689,0,0,0-2.871-8.053c-2.692-3.242-5.7-5.3-14.163-5.3h-6.993v7.793h7.073c6.992,0,8.618,3.61,8.8,6.934.045.824.556,7.975-7.7,7.975-.342,0-2.742.03-3.081.03h-5.091v3.616a18.932,18.932,0,0,1-.411,3.982h8.425C535.317,250.392,538.548,239.682,537.993,233.415Z" transform="translate(-408.73 -220.063)" fill="#5f1655"/>
      </g>
      <g id="Grupo_2296" data-name="Grupo 2296" transform="translate(0.77 50.806)">
        <path id="Trazado_5890" data-name="Trazado 5890" d="M209,370.179h1.609c1.263,0,2.115.424,2.115,1.659,0,1.186-.848,1.74-2.08,1.74h-.927v2.235H209ZM210.552,373c.985,0,1.455-.358,1.455-1.159s-.5-1.078-1.49-1.078h-.8V373Z" transform="translate(-208.998 -369.697)" fill="#757474"/>
        <path id="Trazado_5891" data-name="Trazado 5891" d="M221.526,376.348a1.948,1.948,0,1,1,1.933,2.185A2,2,0,0,1,221.526,376.348Zm3.138,0c0-.956-.487-1.607-1.2-1.607s-1.2.651-1.2,1.607.487,1.6,1.2,1.6S224.664,377.305,224.664,376.348Z" transform="translate(-217.246 -372.313)" fill="#757474"/>
        <path id="Trazado_5892" data-name="Trazado 5892" d="M234.5,374.457h.722l.619,2.41c.09.4.168.772.248,1.164h.034c.091-.392.181-.774.284-1.164l.644-2.41h.689l.651,2.41c.1.4.193.772.29,1.164h.034c.091-.392.168-.767.259-1.164l.608-2.41h.673l-1.12,4.172h-.86l-.6-2.242c-.1-.395-.181-.78-.282-1.2h-.034c-.09.422-.175.817-.287,1.212l-.585,2.232h-.825Z" transform="translate(-225.789 -372.513)" fill="#757474"/>
        <path id="Trazado_5893" data-name="Trazado 5893" d="M253.005,376.348a2.012,2.012,0,0,1,1.876-2.194c1.064,0,1.666.764,1.666,1.958a2.223,2.223,0,0,1-.033.4H253.7a1.387,1.387,0,0,0,1.387,1.457,1.827,1.827,0,0,0,1.039-.333l.253.463a2.452,2.452,0,0,1-1.378.434A2,2,0,0,1,253.005,376.348Zm2.917-.341c0-.835-.376-1.29-1.028-1.29a1.28,1.28,0,0,0-1.2,1.29Z" transform="translate(-237.97 -372.313)" fill="#757474"/>
        <path id="Trazado_5894" data-name="Trazado 5894" d="M266.384,374.258h.584l.059.759h.024a1.436,1.436,0,0,1,1.186-.863.98.98,0,0,1,.446.086l-.132.62a1.159,1.159,0,0,0-.4-.07c-.353,0-.774.254-1.056.961v2.679h-.707Z" transform="translate(-246.778 -372.313)" fill="#757474"/>
        <path id="Trazado_5895" data-name="Trazado 5895" d="M273.95,376.348a2.012,2.012,0,0,1,1.876-2.194c1.064,0,1.666.764,1.666,1.958a2.26,2.26,0,0,1-.033.4h-2.81a1.387,1.387,0,0,0,1.386,1.457,1.826,1.826,0,0,0,1.039-.333l.253.463a2.452,2.452,0,0,1-1.378.434A2,2,0,0,1,273.95,376.348Zm2.917-.341c0-.835-.376-1.29-1.028-1.29a1.28,1.28,0,0,0-1.2,1.29Z" transform="translate(-251.759 -372.313)" fill="#757474"/>
        <path id="Trazado_5896" data-name="Trazado 5896" d="M286.458,372.8a1.972,1.972,0,0,1,1.806-2.194,1.708,1.708,0,0,1,1.169.484l-.029-.717v-1.607h.706v6.116h-.583l-.059-.492h-.024a1.849,1.849,0,0,1-1.267.6C287.134,374.987,286.458,374.194,286.458,372.8Zm2.946,1.021v-2.188a1.471,1.471,0,0,0-1.018-.434c-.667,0-1.2.644-1.2,1.594,0,1,.414,1.6,1.145,1.6A1.441,1.441,0,0,0,289.4,373.823Z" transform="translate(-259.993 -368.767)" fill="#757474"/>
        <path id="Trazado_5897" data-name="Trazado 5897" d="M306.966,374.453h-.024l-.066.43h-.564v-6.116h.706v1.674l-.023.748a2.114,2.114,0,0,1,1.311-.581c1.078,0,1.658.837,1.658,2.123,0,1.426-.854,2.256-1.807,2.256A1.869,1.869,0,0,1,306.966,374.453Zm2.268-1.712c0-.921-.315-1.539-1.1-1.539a1.693,1.693,0,0,0-1.116.57v2.188a1.608,1.608,0,0,0,1.016.434C308.725,374.393,309.234,373.77,309.234,372.741Z" transform="translate(-273.064 -368.767)" fill="#757474"/>
        <path id="Trazado_5898" data-name="Trazado 5898" d="M318.539,380.342l.138-.562a1.1,1.1,0,0,0,.318.061c.471,0,.768-.377.941-.895l.095-.309-1.674-4.181h.728l.851,2.31c.131.363.271.79.407,1.177h.034c.119-.381.237-.808.351-1.177l.744-2.31h.692l-1.573,4.517c-.295.827-.726,1.455-1.562,1.455A1.345,1.345,0,0,1,318.539,380.342Z" transform="translate(-280.993 -372.513)" fill="#757474"/>
        <path id="Trazado_5899" data-name="Trazado 5899" d="M335.978,376.348a2.012,2.012,0,0,1,1.876-2.194c1.064,0,1.665.764,1.665,1.958a2.229,2.229,0,0,1-.033.4h-2.811a1.387,1.387,0,0,0,1.387,1.457,1.827,1.827,0,0,0,1.039-.333l.253.463a2.453,2.453,0,0,1-1.378.434A2,2,0,0,1,335.978,376.348Zm2.917-.341c0-.835-.376-1.29-1.028-1.29a1.28,1.28,0,0,0-1.2,1.29Z" transform="translate(-292.594 -372.313)" fill="#757474"/>
        <path id="Trazado_5900" data-name="Trazado 5900" d="M348.45,376.348a2.025,2.025,0,0,1,2.008-2.194,1.755,1.755,0,0,1,1.221.49l-.361.466a1.206,1.206,0,0,0-.828-.369c-.756,0-1.31.651-1.31,1.607s.524,1.6,1.291,1.6a1.506,1.506,0,0,0,.98-.416l.306.473a2.026,2.026,0,0,1-1.349.531A1.962,1.962,0,0,1,348.45,376.348Z" transform="translate(-300.805 -372.313)" fill="#757474"/>
        <path id="Trazado_5901" data-name="Trazado 5901" d="M359.387,376.348a2.012,2.012,0,0,1,1.876-2.194c1.064,0,1.665.764,1.665,1.958a2.26,2.26,0,0,1-.033.4h-2.811a1.387,1.387,0,0,0,1.387,1.457,1.827,1.827,0,0,0,1.039-.333l.253.463a2.453,2.453,0,0,1-1.378.434A2,2,0,0,1,359.387,376.348Zm2.917-.341c0-.835-.376-1.29-1.029-1.29a1.28,1.28,0,0,0-1.2,1.29Z" transform="translate(-308.005 -372.313)" fill="#757474"/>
        <path id="Trazado_5902" data-name="Trazado 5902" d="M372.766,374.258h.584l.059.759h.024a1.436,1.436,0,0,1,1.186-.863.982.982,0,0,1,.446.086l-.132.62a1.16,1.16,0,0,0-.4-.07c-.353,0-.774.254-1.056.961v2.679h-.707Z" transform="translate(-316.813 -372.313)" fill="#757474"/>
        <path id="Trazado_5903" data-name="Trazado 5903" d="M380.656,375.085v-2.308h-.621v-.534l.652-.04.085-1.17h.59v1.17h1.131v.575h-1.131V375.1c0,.51.164.8.645.8a1.382,1.382,0,0,0,.476-.112l.136.533a2.474,2.474,0,0,1-.774.155C380.957,376.478,380.656,375.915,380.656,375.085Z" transform="translate(-321.599 -370.258)" fill="#757474"/>
      </g>
    </g>
    <g id="Grupo_2299" data-name="Grupo 2299" transform="translate(184.541 197.859)">
      <g id="Grupo_2298" data-name="Grupo 2298">
        <rect id="Rectángulo_1817" data-name="Rectángulo 1817" width="7.586" height="7.586" fill="none"/>
        <rect id="Rectángulo_1818" data-name="Rectángulo 1818" width="7.586" height="7.586" transform="translate(136.908)" fill="none"/>
        <rect id="Rectángulo_1819" data-name="Rectángulo 1819" width="7.586" height="7.586" transform="translate(136.908 66.309)" fill="none"/>
        <rect id="Rectángulo_1820" data-name="Rectángulo 1820" width="7.586" height="7.586" transform="translate(0 66.309)" fill="none"/>
      </g>
      <rect id="Rectángulo_1821" data-name="Rectángulo 1821" width="129.322" height="58.722" transform="translate(7.586 7.586)" fill="none"/>
      <rect id="Rectángulo_1822" data-name="Rectángulo 1822" width="144.494" height="73.895" fill="none"/>
    </g>
  </g>
</svg>
