<svg xmlns="http://www.w3.org/2000/svg" width="50.683" height="63.813" viewBox="0 0 50.683 63.813">
  <g id="Grupo_3403" data-name="Grupo 3403" transform="translate(-0.008 -0.038)">
    <g id="Grupo_3395" data-name="Grupo 3395" transform="translate(1.138 1.138)">
      <path id="Trazado_7109" data-name="Trazado 7109" d="M49.652,38.051V11.713C29.67,11.713,25.461,1.25,25.461,1.25S21.252,11.713,1.27,11.713V38.051S-.349,50.706,25.461,62.863C51.272,50.706,49.652,38.051,49.652,38.051Z" transform="translate(-1.25 -1.25)" fill="none" stroke="#76777a" stroke-linecap="round" stroke-linejoin="round" stroke-width="2.2"/>
      <path id="Trazado_7110" data-name="Trazado 7110" d="M34.214,50.393a20.529,20.529,0,0,0,.413-7.04" transform="translate(-10.348 -12.87)" fill="none" stroke="#76777a" stroke-linecap="round" stroke-linejoin="round" stroke-width="2.2"/>
      <path id="Trazado_7111" data-name="Trazado 7111" d="M28.857,62.691a20.58,20.58,0,0,0,2.436-3.926" transform="translate(-8.87 -17.124)" fill="none" stroke="#76777a" stroke-linecap="round" stroke-linejoin="round" stroke-width="2.2"/>
      <path id="Trazado_7112" data-name="Trazado 7112" d="M31.813,57.537a24.577,24.577,0,0,0,3.293-7.724,24.446,24.446,0,0,0,.492-8.445,3.918,3.918,0,0,0-7.792.8,16.668,16.668,0,0,1-4.133,13.154" transform="translate(-7.439 -11.376)" fill="none" stroke="#76777a" stroke-linecap="round" stroke-linejoin="round" stroke-width="2.2"/>
      <path id="Trazado_7113" data-name="Trazado 7113" d="M37.46,36.763a7.891,7.891,0,0,0-.982-1.481,7.685,7.685,0,0,0-3.346-2.313,7.844,7.844,0,0,0-9.993,4.787,6.954,6.954,0,0,0-.312,1.262,8.77,8.77,0,0,0-.1,1.265c0,.042-.006.085-.007.127s0,.085,0,.128c0,.072,0,.143,0,.214s0,.141.008.212c0,.031,0,.062,0,.094a.588.588,0,0,0,0,.094,12.633,12.633,0,0,1-.55,5.521,12.841,12.841,0,0,1-2.79,4.714" transform="translate(-6.258 -9.882)" fill="none" stroke="#76777a" stroke-linecap="round" stroke-linejoin="round" stroke-width="2.2"/>
      <path id="Trazado_7114" data-name="Trazado 7114" d="M41.683,58.5a28.723,28.723,0,0,0,2.47-7.41,28.165,28.165,0,0,0,.435-6.807" transform="translate(-12.41 -13.127)" fill="none" stroke="#76777a" stroke-linecap="round" stroke-linejoin="round" stroke-width="2.2"/>
      <path id="Trazado_7115" data-name="Trazado 7115" d="M18.793,36.886c.009-.054.017-.108.027-.162a10.784,10.784,0,0,1,.456-1.763,11.715,11.715,0,0,1,19.9-3.841,11.856,11.856,0,0,1,2.663,5.339c.044.168.085.334.119.5s.062.334.083.5c.009.077.016.151.022.222s.011.142.015.213l.01.137.01.137a31.108,31.108,0,0,1-.025,6.312,32.131,32.131,0,0,1-1.258,6.125" transform="translate(-6.092 -8.387)" fill="none" stroke="#76777a" stroke-linecap="round" stroke-linejoin="round" stroke-width="2.2"/>
      <path id="Trazado_7116" data-name="Trazado 7116" d="M16.065,52.094a8.883,8.883,0,0,0,1.583-3.066,8.772,8.772,0,0,0,.343-2.364" transform="translate(-5.339 -13.784)" fill="none" stroke="#76777a" stroke-linecap="round" stroke-linejoin="round" stroke-width="2.2"/>
      <path id="Trazado_7117" data-name="Trazado 7117" d="M16.8,27.292q.2-.239.41-.468a15.676,15.676,0,0,1,16.8-4.238,15.363,15.363,0,0,1,3.554,1.8M13.524,40.7c-.043-.2-.085-.423-.127-.661s-.08-.491-.114-.749-.063-.523-.084-.786-.033-.521-.035-.77l0-.195,0-.195,0-.195,0-.195q.01-.616.067-1.224t.163-1.207q.105-.6.26-1.189t.358-1.168c.146-.411.306-.814.481-1.2" transform="translate(-4.538 -6.893)" fill="none" stroke="#76777a" stroke-linecap="round" stroke-linejoin="round" stroke-width="2.2"/>
      <path id="Trazado_7118" data-name="Trazado 7118" d="M51.19,29.29c2.391,2.732,4.278,7.614,3.8,11.383" transform="translate(-15.034 -8.989)" fill="none" stroke="#76777a" stroke-linecap="round" stroke-linejoin="round" stroke-width="2.2"/>
    </g>
  </g>
</svg>
