<svg xmlns="http://www.w3.org/2000/svg" width="78.843" height="78.843" viewBox="0 0 78.843 78.843">
  <defs>
    <style>
      .cls-1 {
        fill: #fff;
        stroke: #319b42;
        stroke-width: 1.2px;
      }

      .cls-2 {
        fill: #319b42;
      }

      .cls-3 {
        stroke: none;
      }

      .cls-4 {
        fill: none;
      }
    </style>
  </defs>
  <g id="Grupo_2114" data-name="Grupo 2114" transform="translate(-658 -4295)">
    <g id="Grupo_2089" data-name="Grupo 2089">
      <g id="Elipse_58" data-name="Elipse 58" class="cls-1" transform="translate(658 4295)">
        <circle class="cls-3" cx="39.421" cy="39.421" r="39.421"/>
        <circle class="cls-4" cx="39.421" cy="39.421" r="38.821"/>
      </g>
      <g id="Grupo_1048" data-name="Grupo 1048" transform="translate(679 4319)">
        <path id="Trazado_2115" data-name="Trazado 2115" class="cls-2" d="M800.1,273.154c-.977-2.106-3.083-2.031-5.114-2.106-1.278,0-3.309.226-3.835-1.2-.6-1.655.9-4.363,1.353-5.943,1.053-3.535-1.8-6.845-4.737-3.535-3.534,3.987-3.534,11.434-9.926,11.886a1.917,1.917,0,0,0-.3-1.279c-1.128-1.73-5.49-1.128-7.144-1.2-1.654,0-5.188-.3-6.542.978-1.278,1.2-.752,4.288-.752,5.868,0,2.633,0,5.266.151,7.974.075,1.053-.151,3.686.9,4.363,1.128.677,4.061.225,5.264.225,2.106,0,5.038.451,7.069-.225,1.2-.376,1.2-1.129,1.278-2.332a17.379,17.379,0,0,1,5.565.376c1.654.451,2.933,1.58,4.587,1.881a19.169,19.169,0,0,0,8.5-.527c2.858-.9,2.557-3.536,3.083-6.093C800.18,279.4,801.383,275.862,800.1,273.154Zm-23.612,14.594c-.752.753-4.813.226-5.79.226-1.2,0-2.331,0-3.534-.075-.526,0-1.955.226-2.406-.075-.527-.451-.376-4.814-.451-5.943-.075-2.407-.075-4.814,0-7.3.075-1.956-.151-3.009,2.03-3.461a19.174,19.174,0,0,1,4.136-.3c1.2.075,2.406.075,3.534.15,2.03.151,2.632.377,2.632,2.558,0,2.483.075,4.965.15,7.372v4.062C776.718,285.566,776.944,287.3,776.493,287.747Zm22.936-11.058c-.075,2.332-.9,4.589-1.279,6.846-.3,1.73-.075,2.708-2.03,3.611a9.056,9.056,0,0,1-2.482.451c-2.106.15-4.963.451-6.843-.377a19.292,19.292,0,0,0-8.949-1.805c.151-2.332,0-4.739,0-7.071,0-1.58-.075-3.159-.075-4.664v-.3a8.321,8.321,0,0,0,5.941-2.859c1.2-1.579,1.729-3.836,2.557-5.642a17.273,17.273,0,0,1,1.88-3.235c1.579-2.031,3.534-2.031,3.534,1.129-.075,2.332-2.932,5.792-1.354,8.2.977,1.429,3.534,1.129,4.963,1.129a6.012,6.012,0,0,1,2.857.376C799.578,273.455,799.5,275.335,799.428,276.689Z" transform="translate(-763 -259)"/>
        <path id="Trazado_2116" data-name="Trazado 2116" class="cls-2" d="M781.821,306.942h-.151a2.016,2.016,0,0,0-2.406,1.655,2.249,2.249,0,0,0,1.88,2.483,2.03,2.03,0,0,0,2.256-1.805A2.129,2.129,0,0,0,781.821,306.942Zm-.527,3.084a1.143,1.143,0,0,1-.9-1.2c0-.677.6-.753,1.128-.753C782.573,308.371,782.5,310.1,781.294,310.026Z" transform="translate(-771.035 -282.708)"/>
        <path id="Trazado_2117" data-name="Trazado 2117" class="cls-2" d="M826.193,288.332a.564.564,0,0,0,0,1.129c.752,0,1.5-.151,1.729.9a6.891,6.891,0,0,1-.075,1.279,21.064,21.064,0,0,1-.526,3.009c-.151.677.9.978,1.053.3.3-1.5.9-3.611.526-5.116C828.675,288.482,827.321,288.257,826.193,288.332Z" transform="translate(-793.976 -273.501)"/>
        <path id="Trazado_2118" data-name="Trazado 2118" class="cls-2" d="M821.538,288.889h0c0,.753,1.128.753,1.128.075v-.075A.567.567,0,0,0,821.538,288.889Z" transform="translate(-791.953 -273.532)"/>
      </g>
    </g>
  </g>
</svg>
