<svg width="38" height="43" viewBox="0 0 38 43" fill="none" xmlns="http://www.w3.org/2000/svg">
<path d="M0.684504 27.1035V13.6515C0.688738 10.1157 2.09527 6.72594 4.59555 4.22585C7.09584 1.72575 10.4857 0.319468 14.0215 0.315498L15.7995 0.315498C19.3353 0.319468 22.7252 1.72575 25.2254 4.22585C27.7257 6.72594 29.1323 10.1157 29.1365 13.6515V27.1035H26.3175V13.6515C26.3141 10.8631 25.2048 8.18991 23.233 6.2183C21.2612 4.2467 18.5879 3.13767 15.7995 3.1345H14.0215C11.2324 3.13662 8.55808 4.24517 6.58543 6.21689C4.61277 8.18861 3.50294 10.8624 3.4995 13.6515V27.1035H0.684504Z" fill="#B4008D"/>
<path d="M17.7885 28.5055V19.4845C17.7885 19.1108 17.937 18.7524 18.2012 18.4882C18.4654 18.224 18.8238 18.0755 19.1975 18.0755C19.5712 18.0755 19.9296 18.224 20.1938 18.4882C20.4581 18.7524 20.6065 19.1108 20.6065 19.4845V28.5055C20.6065 29.263 20.9074 29.9894 21.443 30.525C21.9786 31.0606 22.705 31.3615 23.4625 31.3615C24.22 31.3615 24.9464 31.0606 25.482 30.525C26.0176 29.9894 26.3185 29.263 26.3185 28.5055V21.8885C26.3185 21.5148 26.4669 21.1564 26.7312 20.8922C26.9954 20.628 27.3538 20.4795 27.7275 20.4795C28.1012 20.4795 28.4596 20.628 28.7238 20.8922C28.9881 21.1564 29.1365 21.5148 29.1365 21.8885V28.5055C29.1365 30.0103 28.5387 31.4535 27.4746 32.5176C26.4105 33.5817 24.9673 34.1795 23.4625 34.1795C21.9577 34.1795 20.5145 33.5817 19.4504 32.5176C18.3863 31.4535 17.7885 30.0103 17.7885 28.5055" fill="white"/>
<path d="M9.25849 23.4895L9.25849 14.4685C9.25849 12.9637 9.85629 11.5205 10.9204 10.4564C11.9845 9.3923 13.4277 8.7945 14.9325 8.7945C16.4373 8.7945 17.8805 9.3923 18.9446 10.4564C20.0087 11.5205 20.6065 12.9637 20.6065 14.4685V23.4895C20.6065 23.8632 20.458 24.2216 20.1938 24.4858C19.9296 24.7501 19.5712 24.8985 19.1975 24.8985C18.8238 24.8985 18.4654 24.7501 18.2012 24.4858C17.9369 24.2216 17.7885 23.8632 17.7885 23.4895V14.4685C17.7885 13.711 17.4876 12.9846 16.952 12.449C16.4164 11.9134 15.69 11.6125 14.9325 11.6125C14.175 11.6125 13.4486 11.9134 12.913 12.449C12.3774 12.9846 12.0765 13.711 12.0765 14.4685L12.0765 23.4895C12.0765 23.8632 11.928 24.2216 11.6638 24.4858C11.3996 24.7501 11.0412 24.8985 10.6675 24.8985C10.2938 24.8985 9.93542 24.7501 9.67118 24.4858C9.40694 24.2216 9.25849 23.8632 9.25849 23.4895" fill="#00AE8D"/>
<path d="M26.3185 19.3345V22.2285H29.1275V21.0045L26.3185 19.3345Z" fill="white"/>
<path d="M20.6055 26.0095V23.1155H17.7925V24.3395L20.6055 26.0095Z" fill="#00AE8D"/>
<path d="M9.25749 29.3715V17.9175H12.0755V29.3715C12.0787 32.1601 13.1878 34.8335 15.1597 36.8053C17.1315 38.7772 19.8049 39.8863 22.5935 39.8895H24.3725C27.1609 39.886 29.8341 38.7768 31.8057 36.805C33.7773 34.8332 34.8863 32.1599 34.8895 29.3715V15.9195H37.7085V29.3715C37.7045 32.9073 36.2982 36.2972 33.7981 38.7974C31.298 41.2977 27.9083 42.7043 24.3725 42.7085H22.5935C19.0577 42.7043 15.6679 41.2977 13.1678 38.7974C10.6677 36.2972 9.26146 32.9073 9.25749 29.3715" fill="#008FBE"/>
<path d="M9.25749 15.1555V18.0495H12.0705V16.8255L9.25749 15.1555Z" fill="#008FBE"/>
</svg>
