<svg xmlns="http://www.w3.org/2000/svg" width="69.94" height="88.322" viewBox="0 0 69.94 88.322">
  <defs>
    <style>
      .cls-1 {
        fill: #621f65;
      }

      .cls-2 {
        fill: #521855;
      }

      .cls-3 {
        fill: #642667;
      }

      .cls-4 {
        fill: #fff;
      }

      .cls-5 {
        mix-blend-mode: multiply;
        isolation: isolate;
      }

      .cls-6 {
        fill: #e8eaf7;
      }

      .cls-7 {
        fill: #c67400;
      }

      .cls-8 {
        fill: #dd8406;
      }

      .cls-9 {
        fill: #ed8b00;
      }
    </style>
  </defs>
  <g id="Grupo_2931" data-name="Grupo 2931" transform="translate(-511 -976.906)">
    <g id="Grupo_2857" data-name="Grupo 2857" transform="translate(-19.59 26.906)">
      <g id="Grupo_2825" data-name="Grupo 2825" transform="translate(530.59 950)">
        <path id="Trazado_6292" data-name="Trazado 6292" class="cls-1" d="M1001.088,250.7v47.643l-3.181,2.326-.06.044-1.672-1.049L974.281,287.09l-39.952-27.1-3.182-28.687V214.657l.2-.122,3.514-2.1Z" transform="translate(-931.147 -212.432)"/>
        <path id="Trazado_6293" data-name="Trazado 6293" class="cls-2" d="M1613.822,611.329v47.643l-3.181,2.326-.06.044-1.672-1.049V614.92l1.732-1.266Z" transform="translate(-1543.882 -573.057)"/>
        <path id="Trazado_6294" data-name="Trazado 6294" class="cls-3" d="M997.906,271.725V319.46l-.06-.037-1.672-1.049L974.281,305.8l-43.134-24.781V233.123l.2.118Z" transform="translate(-931.147 -231.138)"/>
        <g id="Grupo_2816" data-name="Grupo 2816" transform="translate(1.528 17.509)">
          <path id="Trazado_6295" data-name="Trazado 6295" class="cls-4" d="M950.046,401.4V396.64l-2.973-1.719v4.765Z" transform="translate(-947.073 -394.921)"/>
          <path id="Trazado_6296" data-name="Trazado 6296" class="cls-4" d="M947.073,464.464v10.653l2.973,1.719V466.183Z" transform="translate(-947.073 -457.792)"/>
        </g>
        <path id="Trazado_6297" data-name="Trazado 6297" class="cls-4" d="M1048.862,329.194l-54.456-31.488V340.27l54.456,31.286Z" transform="translate(-988.337 -289.525)"/>
        <g id="Grupo_2817" data-name="Grupo 2817" class="cls-5" transform="translate(8.53 45.443)">
          <path id="Trazado_6298" data-name="Trazado 6298" class="cls-6" d="M1020.057,689.12l49.236,28.287v-3.049l-49.236-28.287Z" transform="translate(-1020.057 -686.071)"/>
        </g>
        <g id="Grupo_2818" data-name="Grupo 2818" class="cls-5" transform="translate(8.53 40.098)">
          <path id="Trazado_6299" data-name="Trazado 6299" class="cls-6" d="M1020.057,630.363v3.049l49.236,28.47v-3.049Z" transform="translate(-1020.057 -630.363)"/>
        </g>
        <g id="Grupo_2819" data-name="Grupo 2819" class="cls-5" transform="translate(32.047 31.804)">
          <path id="Trazado_6300" data-name="Trazado 6300" class="cls-6" d="M1290.879,558.789v3.049l-25.72-14.873v-3.049Z" transform="translate(-1265.159 -543.917)"/>
        </g>
        <g id="Grupo_2820" data-name="Grupo 2820" class="cls-5" transform="translate(32.047 37.151)">
          <path id="Trazado_6301" data-name="Trazado 6301" class="cls-6" d="M1290.879,614.517v3.05l-25.72-14.873v-3.05Z" transform="translate(-1265.159 -599.644)"/>
        </g>
        <g id="Grupo_2821" data-name="Grupo 2821" class="cls-5" transform="translate(32.047 42.498)">
          <path id="Trazado_6302" data-name="Trazado 6302" class="cls-6" d="M1290.879,670.254V673.3l-25.72-14.873v-3.049Z" transform="translate(-1265.159 -655.381)"/>
        </g>
        <g id="Grupo_2822" data-name="Grupo 2822" class="cls-5" transform="translate(32.047 47.846)">
          <path id="Trazado_6303" data-name="Trazado 6303" class="cls-6" d="M1290.879,725.99v3.049l-25.72-14.873v-3.049Z" transform="translate(-1265.159 -711.118)"/>
        </g>
        <g id="Grupo_2823" data-name="Grupo 2823" class="cls-5" transform="translate(8.53 18.117)">
          <path id="Trazado_6304" data-name="Trazado 6304" class="cls-6" d="M1041.6,433.086v-19.37l-21.546-12.459v19.45Z" transform="translate(-1020.057 -401.257)"/>
        </g>
        <ellipse id="Elipse_725" data-name="Elipse 725" class="cls-4" cx="1.558" cy="2.698" rx="1.558" ry="2.698" transform="translate(60.859 61.444) rotate(-30.311)"/>
        <g id="Grupo_2824" data-name="Grupo 2824" class="cls-5" transform="translate(8.53 11.372)">
          <path id="Trazado_6305" data-name="Trazado 6305" class="cls-6" d="M1069.293,359.427l-49.236-28.47v5.013l49.236,28.47Z" transform="translate(-1020.057 -330.957)"/>
        </g>
        <rect id="Rectángulo_2074" data-name="Rectángulo 2074" class="cls-4" width="1.276" height="6.745" transform="translate(20.943 45.483)"/>
        <rect id="Rectángulo_2075" data-name="Rectángulo 2075" class="cls-4" width="1.276" height="5.742" transform="translate(37.167 39.376)"/>
        <rect id="Rectángulo_2076" data-name="Rectángulo 2076" class="cls-4" width="1.276" height="5.742" transform="translate(49.29 41.29)"/>
        <rect id="Rectángulo_2077" data-name="Rectángulo 2077" class="cls-4" width="2.552" height="5.636" transform="translate(35.891 60.719)"/>
        <rect id="Rectángulo_2078" data-name="Rectángulo 2078" class="cls-4" width="1.276" height="6.745" transform="translate(47.194 66.811)"/>
        <rect id="Rectángulo_2079" data-name="Rectángulo 2079" class="cls-4" width="1.276" height="5.833" transform="translate(44.277 54.324)"/>
      </g>
      <g id="Grupo_2827" data-name="Grupo 2827" transform="translate(538.656 990.357)">
        <path id="Trazado_6306" data-name="Trazado 6306" class="cls-7" d="M1194.808,740.086v8.85l-.816.523-.043.028-.816-.472v-7.942l.855-.5Z" transform="translate(-1176.062 -729.818)"/>
        <path id="Trazado_6307" data-name="Trazado 6307" class="cls-8" d="M1033.952,643.331l-.821.484-.855.5-17.071-9.866v-.921l.076-.039.841-.43Z" transform="translate(-1015.205 -633.063)"/>
        <path id="Trazado_6308" data-name="Trazado 6308" class="cls-9" d="M1033.136,647.461v8.94l-.043-.025-.816-.472-17.071-9.871v-8.94l.076.044,17.85,10.322Z" transform="translate(-1015.205 -636.706)"/>
        <g id="Grupo_2826" data-name="Grupo 2826" transform="translate(2.01 4.583)">
          <path id="Trazado_6309" data-name="Trazado 6309" class="cls-4" d="M1036.229,680.871l-.076-.044v1.031l.076.044,13.816,7.989V688.86Z" transform="translate(-1036.152 -680.827)"/>
          <path id="Trazado_6310" data-name="Trazado 6310" class="cls-4" d="M1036.152,701.874V702.9l.076.044,13.816,7.989v-1.031l-13.816-7.989Z" transform="translate(-1036.152 -699.854)"/>
        </g>
      </g>
      <g id="Grupo_2829" data-name="Grupo 2829" transform="translate(569.687 1006.964)">
        <path id="Trazado_6311" data-name="Trazado 6311" class="cls-7" d="M1518.239,913.171v8.85l-.816.523-.043.028-.816-.472v-7.942l.855-.5Z" transform="translate(-1499.492 -902.903)"/>
        <path id="Trazado_6312" data-name="Trazado 6312" class="cls-8" d="M1357.382,816.416l-.821.484-.855.5-17.071-9.866v-.921l.076-.039.841-.431Z" transform="translate(-1338.635 -806.148)"/>
        <path id="Trazado_6313" data-name="Trazado 6313" class="cls-9" d="M1356.566,820.546v8.94l-.043-.025-.816-.472-17.071-9.871v-8.94l.076.044,17.85,10.322Z" transform="translate(-1338.635 -809.792)"/>
        <g id="Grupo_2828" data-name="Grupo 2828" transform="translate(2.01 4.583)">
          <path id="Trazado_6314" data-name="Trazado 6314" class="cls-4" d="M1359.659,853.956l-.076-.044v1.031l.076.044,13.816,7.989v-1.031Z" transform="translate(-1359.583 -853.913)"/>
          <path id="Trazado_6315" data-name="Trazado 6315" class="cls-4" d="M1359.583,874.959v1.031l.076.044,13.816,7.989v-1.031L1359.659,875Z" transform="translate(-1359.583 -872.94)"/>
        </g>
      </g>
    </g>
  </g>
</svg>
