<svg xmlns="http://www.w3.org/2000/svg" width="57.464" height="86.793" viewBox="0 0 57.464 86.793">
  <defs>
    <style>
      .cls-1 {
        fill: #d1cfe2;
      }

      .cls-2 {
        fill: #b2b1c9;
      }

      .cls-3 {
        fill: #36a1cc;
      }

      .cls-4 {
        fill: #806342;
      }

      .cls-5 {
        fill: #f4bdae;
      }

      .cls-6 {
        fill: #ffcebd;
      }

      .cls-7 {
        fill: #364084;
      }

      .cls-8 {
        fill: #af1685;
      }

      .cls-9 {
        fill: #533819;
      }

      .cls-10, .cls-12 {
        fill: #72246c;
      }

      .cls-11 {
        opacity: 0.25;
      }

      .cls-12 {
        opacity: 0.56;
      }
    </style>
  </defs>
  <g id="Grupo_2865" data-name="Grupo 2865" transform="translate(-1383.792 -1075.698)">
    <g id="Grupo_2862" data-name="Grupo 2862" transform="translate(1394.473 1103.688)">
      <path id="Trazado_6393" data-name="Trazado 6393" class="cls-1" d="M1599.632,1343.544l-.748,18.094-31.229,17.195.427-18.289Z" transform="translate(-1552.849 -1334.405)"/>
      <path id="Trazado_6394" data-name="Trazado 6394" class="cls-2" d="M1476.076,1410.91l-14.815-8.894-.418,17.914,14.806,9.27Z" transform="translate(-1460.843 -1384.772)"/>
      <path id="Trazado_6395" data-name="Trazado 6395" class="cls-3" d="M1494.591,1277.616l15.634,9.139-31.55,17-14.815-8.894Z" transform="translate(-1463.442 -1277.616)"/>
    </g>
    <g id="Grupo_2864" data-name="Grupo 2864" transform="translate(1383.792 1075.698)">
      <path id="Trazado_6396" data-name="Trazado 6396" class="cls-4" d="M1594.514,1078.424s1.392-1.6,4.155,0,1.06,7.043,3.22,8.124-.769,3.8,1.351,4.882,1.143,6.69-4.093,4.135-5.194-9.931-5.194-9.931Z" transform="translate(-1564.821 -1077.434)"/>
      <path id="Trazado_6397" data-name="Trazado 6397" class="cls-5" d="M1446.651,1405.105s-3.861,26.661-4.082,27.838-3.567,1.912-3.677-.037-2.783-27.976-1.214-30.891C1439.479,1398.67,1447.165,1399.369,1446.651,1405.105Z" transform="translate(-1429.784 -1355.05)"/>
      <path id="Trazado_6398" data-name="Trazado 6398" class="cls-6" d="M1392.538,1383.15s15.54,22.005,16.19,23.011-1.273,3.842-2.694,2.5-21.267-18.389-22.133-21.583C1382.906,1383.413,1388.965,1378.633,1392.538,1383.15Z" transform="translate(-1383.792 -1338.948)"/>
      <path id="Trazado_6399" data-name="Trazado 6399" class="cls-7" d="M1445.874,1631.851s-.306,2.822-.306,5.369-1.468,4.075-3,4.045-1.8-2.427-1.558-3.925,1.036-5.82,1.036-5.82Z" transform="translate(-1433.016 -1554.472)"/>
      <path id="Trazado_6400" data-name="Trazado 6400" class="cls-7" d="M1521.1,1547.928s-2.839,5.68-1.87,7.109,8.352-7.163,8.061-8.135-3.489-2.2-3.489-2.2S1524.846,1547.4,1521.1,1547.928Z" transform="translate(-1500.279 -1479.692)"/>
      <path id="Trazado_6401" data-name="Trazado 6401" class="cls-8" d="M1430.2,1273.741a32.608,32.608,0,0,1,3.958,12.947c.478,7.1-18.235,14.289-20.885,12.679s-13.867-8.818-13.793-10.988,20.777-15.666,20.777-15.666Z" transform="translate(-1397.307 -1245.404)"/>
      <path id="Trazado_6402" data-name="Trazado 6402" class="cls-8" d="M1473.718,1179.218c-.431.482-1.66,1.455-2.584.07-1.486-2.226-.187-11.914.714-12.988s1.593-.623,2.04,1.89S1475.663,1177.043,1473.718,1179.218Z" transform="translate(-1458.444 -1153.271)"/>
      <path id="Trazado_6403" data-name="Trazado 6403" class="cls-6" d="M1477.651,1142.545c-.182.52-1.7.656-2.09-.161s-.666-4.333-.163-4.793,2,.415,2.2,2.962c0,0,.347-1.474.884-.975C1478.74,1139.819,1478.229,1140.89,1477.651,1142.545Z" transform="translate(-1462.465 -1128.911)"/>
      <path id="Trazado_6404" data-name="Trazado 6404" class="cls-8" d="M1476.382,1170.908c2.387-1.751,9.8-7.431,11.523-10.6s-1.759-5.476-4.032-4.36-7.427,8.833-9.205,11.217C1472.757,1169.729,1474.312,1172.427,1476.382,1170.908Z" transform="translate(-1461.324 -1144.581)"/>
      <path id="Trazado_6405" data-name="Trazado 6405" class="cls-9" d="M1589.838,1080.8a3.632,3.632,0,0,1,2.2,1.708c.946,1.681,1.677,4.838-1.341,7C1585.156,1093.472,1589.838,1080.8,1589.838,1080.8Z" transform="translate(-1559.684 -1080.094)"/>
      <path id="Trazado_6501" data-name="Trazado 6501" class="cls-4" d="M4.623,0A4.913,4.913,0,0,1,9.246,5.159a4.913,4.913,0,0,1-4.623,5.159A4.913,4.913,0,0,1,0,5.159,4.913,4.913,0,0,1,4.623,0Z" transform="translate(23.356)"/>
      <path id="Trazado_6406" data-name="Trazado 6406" class="cls-10" d="M1530.616,1167.589a15.2,15.2,0,0,1,.951,3.667,7.971,7.971,0,0,1,.066,1.531,5.108,5.108,0,0,0,4.127,2.556,9,9,0,0,0,3.419-.49c.414-.135.809-.287,1.175-.443,1.425-.609,2.242-.972,2.242-.972-.016-.2.142-.7.138-.9a13.081,13.081,0,0,1,.78-4.462c1.468-4.327,4.4-7.962,3.347-9.12-1.446-1.59-5.734-2.265-5.734-2.265l-3.807-1.156s-3.893-.364-5.012.2c-.679.344-.952,1.487-1.477,2.419-.735,1.305-1.6,2.6-1.6,4.21A10.68,10.68,0,0,0,1530.616,1167.589Z" transform="translate(-1509.067 -1144.369)"/>
      <path id="Trazado_6407" data-name="Trazado 6407" class="cls-6" d="M1578.309,1132.186v3.675a1.593,1.593,0,1,0,3.185,0v-3.675a1.593,1.593,0,1,0-3.185,0Z" transform="translate(-1551.345 -1122.984)"/>
      <g id="Grupo_2863" data-name="Grupo 2863" class="cls-11" transform="translate(26.964 8.87)">
        <path id="Trazado_6408" data-name="Trazado 6408" d="M1578.309,1140.955v1.874c.66-.091,2.708-.518,2.981-2.319C1581.569,1138.675,1579.054,1140.406,1578.309,1140.955Z" transform="translate(-1578.309 -1139.688)"/>
      </g>
      <path id="Trazado_6409" data-name="Trazado 6409" class="cls-6" d="M1553.267,1095.984c0,2.6,1.71,4.71,3.818,4.71s3.818-2.109,3.818-4.71a4.175,4.175,0,0,0-3.846-3.874C1554.565,1091.984,1553.267,1094.7,1553.267,1095.984Z" transform="translate(-1529.775 -1089.831)"/>
      <path id="Trazado_6410" data-name="Trazado 6410" class="cls-6" d="M1602.2,1122.4c-.44.762-.374,1.623.147,1.924s1.3-.073,1.739-.835.374-1.623-.147-1.924S1602.64,1121.641,1602.2,1122.4Z" transform="translate(-1571.673 -1115.12)"/>
      <path id="Trazado_6411" data-name="Trazado 6411" class="cls-8" d="M1585.168,1278.615c.357.539.987,1.974-.587,2.517-2.53.874-11.572-2.838-12.383-3.982s-.2-1.7,2.346-1.495S1583.558,1276.182,1585.168,1278.615Z" transform="translate(-1545.792 -1247.902)"/>
      <path id="Trazado_6412" data-name="Trazado 6412" class="cls-6" d="M1548.135,1265.521c.457.307.2,1.809-.685,1.981s-4.36-.453-4.677-1.057.908-1.829,3.422-1.375c0,0-1.338-.709-.72-1.1C1545.774,1263.777,1546.681,1264.542,1548.135,1265.521Z" transform="translate(-1520.693 -1237.845)"/>
      <path id="Trazado_6413" data-name="Trazado 6413" class="cls-8" d="M1627.836,1194.13c.119-2.958.3-12.3-1.1-15.616s-5.378-2.039-5.923.434,2.276,11.314,3.03,14.19C1624.654,1196.228,1627.733,1196.7,1627.836,1194.13Z" transform="translate(-1587.897 -1162.538)"/>
    </g>
    <path id="Trazado_6414" data-name="Trazado 6414" class="cls-12" d="M1440.937,1377.511l11.166-7.834-8.741,9.55Z" transform="translate(-49.224 -253.228)"/>
  </g>
</svg>
