<svg xmlns="http://www.w3.org/2000/svg" width="74.947" height="87.486" viewBox="0 0 74.947 87.486">
  <defs>
    <style>
      .cls-1 {
        fill: #36a1cc;
      }

      .cls-2 {
        fill: #41b6e6;
      }

      .cls-3 {
        fill: #ce7a03;
      }

      .cls-4 {
        fill: #ed8b00;
      }
    </style>
  </defs>
  <g id="Grupo_2815" data-name="Grupo 2815" transform="translate(-235.509 -301.554)">
    <g id="Grupo_2811" data-name="Grupo 2811" transform="translate(235.509 301.554)">
      <g id="Grupo_2809" data-name="Grupo 2809" transform="translate(3.401 0)">
        <path id="Trazado_6285" data-name="Trazado 6285" class="cls-1" d="M1304.693,335.256l-21.675-12.7a11.063,11.063,0,0,1-5.061-6.561l-.418-1.493a11.89,11.89,0,0,0-5.559-7.121l-25.588-14.593a6.42,6.42,0,0,0-9.6,5.577v37.59a9.589,9.589,0,0,0,4.745,8.275l54.194,31.721a8.375,8.375,0,0,0,12.606-7.228V341.613A7.368,7.368,0,0,0,1304.693,335.256Z" transform="translate(-1236.792 -291.939)"/>
        <path id="Trazado_6286" data-name="Trazado 6286" class="cls-2" d="M1300.715,362.235l-21.047-12.324a11.061,11.061,0,0,1-5.009-6.378l-.329-1.1a11.891,11.891,0,0,0-5.5-6.924l-26.445-15.08a3.738,3.738,0,0,0-5.59,3.247v38.135a9.319,9.319,0,0,0,4.612,8.043l54.209,31.727a5.811,5.811,0,0,0,8.747-5.016V368.594A7.368,7.368,0,0,0,1300.715,362.235Z" transform="translate(-1236.792 -317.637)"/>
      </g>
      <g id="Grupo_2810" data-name="Grupo 2810" transform="translate(0 9.206)">
        <path id="Trazado_6287" data-name="Trazado 6287" class="cls-3" d="M1257.721,444.012l-19.92-11.668a10.166,10.166,0,0,1-4.651-6.03l-.384-1.372a10.928,10.928,0,0,0-5.109-6.545l-23.516-13.412a5.9,5.9,0,0,0-8.823,5.125v34.547a8.813,8.813,0,0,0,4.361,7.605l49.807,29.153a7.7,7.7,0,0,0,11.586-6.643V449.855A6.771,6.771,0,0,0,1257.721,444.012Z" transform="translate(-1195.317 -404.202)"/>
        <path id="Trazado_6288" data-name="Trazado 6288" class="cls-4" d="M1254.065,468.807l-19.344-11.327a10.167,10.167,0,0,1-4.6-5.862l-.3-1.011a10.927,10.927,0,0,0-5.057-6.363l-24.3-13.859a3.435,3.435,0,0,0-5.137,2.984v35.047a8.565,8.565,0,0,0,4.238,7.392l49.82,29.159a5.341,5.341,0,0,0,8.039-4.61V474.651A6.772,6.772,0,0,0,1254.065,468.807Z" transform="translate(-1195.317 -427.819)"/>
      </g>
    </g>
  </g>
</svg>
